<?xml version="1.0" standalone="no"?>
<!DOCTYPE svg PUBLIC "-//W3C//DTD SVG 20010904//EN"
 "http://www.w3.org/TR/2001/REC-SVG-20010904/DTD/svg10.dtd">
<svg version="1.0" xmlns="http://www.w3.org/2000/svg"
 width="24.000000pt" height="24.000000pt" viewBox="0 0 24.000000 24.000000"
 preserveAspectRatio="xMidYMid meet">

<g transform="translate(0.000000,24.000000) scale(0.100000,-0.100000)"
fill="#000000" stroke="none">
<path d="M40 194 c-23 -9 -28 -13 -14 -13 11 -1 25 -6 32 -13 9 -9 17 -9 34 0
13 6 50 13 83 15 l60 3 -70 2 c-39 1 -75 6 -80 10 -6 5 -26 3 -45 -4z m40 -14
c0 -5 -4 -10 -10 -10 -5 0 -10 5 -10 10 0 6 5 10 10 10 6 0 10 -4 10 -10z"/>
<path d="M88 133 c-43 -2 -78 -8 -78 -13 0 -14 204 -19 217 -6 18 17 -33 24
-139 19z m102 -13 c0 -5 -4 -10 -10 -10 -5 0 -10 5 -10 10 0 6 5 10 10 10 6 0
10 -4 10 -10z"/>
<path d="M85 71 c-6 -5 -26 -11 -45 -14 -34 -4 -34 -4 7 -5 23 -1 45 -7 48
-12 4 -6 12 -7 18 -3 7 4 37 11 67 14 l55 6 -52 2 c-28 0 -55 6 -58 11 -8 13
-28 13 -40 1z m35 -11 c0 -5 -4 -10 -10 -10 -5 0 -10 5 -10 10 0 6 5 10 10 10
6 0 10 -4 10 -10z"/>
</g>
</svg>
